<?xml version="1.0" encoding="UTF-8" standalone="no"?>
<!-- Created with Inkscape (http://www.inkscape.org/) -->

<svg
   xmlns:dc="http://purl.org/dc/elements/1.1/"
   xmlns:cc="http://creativecommons.org/ns#"
   xmlns:rdf="http://www.w3.org/1999/02/22-rdf-syntax-ns#"
   xmlns:svg="http://www.w3.org/2000/svg"
   xmlns="http://www.w3.org/2000/svg"
   xmlns:sodipodi="http://sodipodi.sourceforge.net/DTD/sodipodi-0.dtd"
   xmlns:inkscape="http://www.inkscape.org/namespaces/inkscape"
   width="800"
   height="400"
   viewBox="0 0 211.66666 105.83334"
   version="1.1"
   id="svg8"
   sodipodi:docname="title-xs.svg"
   inkscape:version="0.92.0 r15299">
  <defs
     id="defs2" />
  <sodipodi:namedview
     id="base"
     pagecolor="#ffffff"
     bordercolor="#666666"
     borderopacity="1.0"
     inkscape:pageopacity="0.0"
     inkscape:pageshadow="2"
     inkscape:zoom="0.7"
     inkscape:cx="161.13121"
     inkscape:cy="116.24742"
     inkscape:document-units="mm"
     inkscape:current-layer="layer1"
     showgrid="false"
     units="px"
     inkscape:pagecheckerboard="true"
     inkscape:window-width="1920"
     inkscape:window-height="1147"
     inkscape:window-x="-8"
     inkscape:window-y="-8"
     inkscape:window-maximized="1" />
  <metadata
     id="metadata5">
    <rdf:RDF>
      <cc:Work
         rdf:about="">
        <dc:format>image/svg+xml</dc:format>
        <dc:type
           rdf:resource="http://purl.org/dc/dcmitype/StillImage" />
        <dc:title></dc:title>
      </cc:Work>
    </rdf:RDF>
  </metadata>
  <g
     inkscape:label="Layer 1"
     inkscape:groupmode="layer"
     id="layer1"
     transform="translate(0,-191.16663)">
    <g
       aria-label="STEVE
DESMOND
SOFTWARE  DEVELOPMENT"
       style="font-style:normal;font-weight:normal;font-size:10.58333302px;line-height:85.00000238%;font-family:sans-serif;letter-spacing:0px;word-spacing:0px;fill:#000000;fill-opacity:1;stroke:none;stroke-width:0.26458332"
       id="text12">
      <path
         d="m 1.6220074,226.35642 12.1756586,-0.76274 q 0.395497,2.96623 1.610238,4.51997 1.977485,2.51423 5.649957,2.51423 2.740229,0 4.209218,-1.27124 1.497239,-1.29949 1.497239,-2.99448 0,-1.61024 -1.412489,-2.88148 -1.41249,-1.27124 -6.553951,-2.40123 -8.418437,-1.89274 -12.0061595,-5.02846 -3.6159728,-3.13573 -3.6159728,-7.99469 0,-3.19223 1.8362362,-6.01721 1.8644859,-2.85323 5.5652081,-4.46346 3.728972,-1.63849 10.198173,-1.63849 7.93819,0 12.090909,2.96623 4.180969,2.93797 4.971963,9.37893 l -12.06266,0.70624 q -0.480246,-2.79673 -2.033984,-4.06797 -1.525489,-1.27124 -4.237468,-1.27124 -2.231733,0 -3.361725,0.96049 -1.129991,0.93225 -1.129991,2.28824 0,0.98874 0.932243,1.77973 0.903993,0.81925 4.293967,1.52549 8.390187,1.80799 12.00616,3.67247 3.644222,1.83624 5.28271,4.57647 1.666737,2.74023 1.666737,6.1302 0,3.98322 -2.203483,7.34495 -2.203483,3.36172 -6.158454,5.11321 -3.95497,1.72324 -9.972175,1.72324 -10.56542,0 -14.6333893,-4.06797 -4.0679693,-4.06797 -4.6047153,-10.33943 z"
         style="font-style:normal;font-variant:normal;font-weight:900;font-stretch:normal;font-size:57.85556412px;line-height:80.00000119%;font-family:Arial;-inkscape-font-specification:'Arial Heavy';text-align:center;text-anchor:middle;fill:#ffffff;stroke-width:0.26458332"
         id="path4092" />
      <path
         d="m 42.753697,198.64338 h 38.899957 v 10.22643 H 68.602253 v 31.18776 H 55.805099 V 208.86981 H 42.753697 Z"
         style="font-style:normal;font-variant:normal;font-weight:900;font-stretch:normal;font-size:57.85556412px;line-height:80.00000119%;font-family:Arial;-inkscape-font-specification:'Arial Heavy';text-align:center;text-anchor:middle;fill:#ffffff;stroke-width:0.26458332"
         id="path4094" />
      <path
         d="m 87.44486,198.64338 h 34.29524 v 8.84219 h -21.46984 v 6.5822 h 19.9161 v 8.44668 h -19.9161 v 8.16419 h 22.09134 v 9.37893 H 87.44486 Z"
         style="font-style:normal;font-variant:normal;font-weight:900;font-stretch:normal;font-size:57.85556412px;line-height:80.00000119%;font-family:Arial;-inkscape-font-specification:'Arial Heavy';text-align:center;text-anchor:middle;fill:#ffffff;stroke-width:0.26458332"
         id="path4096" />
      <path
         d="m 125.18658,198.64338 h 13.39039 l 9.32243,29.80353 9.18119,-29.80353 h 12.9949 l -15.36789,41.41419 h -13.87064 z"
         style="font-style:normal;font-variant:normal;font-weight:900;font-stretch:normal;font-size:57.85556412px;line-height:80.00000119%;font-family:Arial;-inkscape-font-specification:'Arial Heavy';text-align:center;text-anchor:middle;fill:#ffffff;stroke-width:0.26458332"
         id="path4098" />
      <path
         d="m 174.2282,198.64338 h 34.29524 v 8.84219 H 187.0536 v 6.5822 h 19.9161 v 8.44668 h -19.9161 v 8.16419 h 22.09134 v 9.37893 H 174.2282 Z"
         style="font-style:normal;font-variant:normal;font-weight:900;font-stretch:normal;font-size:57.85556412px;line-height:80.00000119%;font-family:Arial;-inkscape-font-specification:'Arial Heavy';text-align:center;text-anchor:middle;fill:#ffffff;stroke-width:0.26458332"
         id="path4100" />
      <path
         d="M 3.6546109,247.70279 H 15.942924 q 3.633543,0 5.861142,0.98598 2.245858,0.98599 3.706579,2.83015 1.460721,1.84416 2.118045,4.29087 0.657325,2.4467 0.657325,5.18555 0,4.29087 -0.985987,6.66454 -0.967727,2.35542 -2.702333,3.96221 -1.734606,1.58853 -3.724838,2.11804 -2.720593,0.73036 -4.929933,0.73036 H 3.6546109 Z m 8.2713311,6.06199 v 14.62546 h 2.02675 q 2.592779,0 3.68832,-0.56603 1.095541,-0.58428 1.716347,-2.00849 0.620806,-1.44246 0.620806,-4.65604 0,-4.25435 -1.387684,-5.82463 -1.387685,-1.57027 -4.601271,-1.57027 z"
         style="font-style:normal;font-variant:normal;font-weight:900;font-stretch:normal;font-size:37.39445114px;line-height:89.99999762%;font-family:Arial;-inkscape-font-specification:'Arial Heavy';text-align:center;text-anchor:middle;fill:#ffffff;stroke-width:0.26458332"
         id="path4102" />
      <path
         d="m 32.59514,247.70279 h 22.166437 v 5.71507 H 40.88473 v 4.25434 h 12.872602 v 5.45945 H 40.88473 v 5.27685 h 14.278546 v 6.06199 H 32.59514 Z"
         style="font-style:normal;font-variant:normal;font-weight:900;font-stretch:normal;font-size:37.39445114px;line-height:89.99999762%;font-family:Arial;-inkscape-font-specification:'Arial Heavy';text-align:center;text-anchor:middle;fill:#ffffff;stroke-width:0.26458332"
         id="path4104" />
      <path
         d="m 58.19427,265.61487 7.869633,-0.49299 q 0.255626,1.9172 1.040763,2.92144 1.278131,1.62505 3.651802,1.62505 1.771124,0 2.720593,-0.82165 0.967727,-0.83992 0.967727,-1.93546 0,-1.04076 -0.91295,-1.86242 -0.912951,-0.82165 -4.23609,-1.55201 -5.441185,-1.22335 -7.760079,-3.2501 -2.337154,-2.02675 -2.337154,-5.1673 0,-2.06327 1.186836,-3.88917 1.205095,-1.84416 3.597025,-2.88493 2.410189,-1.05902 6.591502,-1.05902 5.130782,0 7.814856,1.9172 2.702334,1.89893 3.213586,6.06199 l -7.796597,0.45647 q -0.310403,-1.80764 -1.314649,-2.62929 -0.985986,-0.82166 -2.738851,-0.82166 -1.442462,0 -2.172822,0.62081 -0.730361,0.60254 -0.730361,1.47898 0,0.63906 0.602548,1.15031 0.584288,0.52952 2.775369,0.98599 5.422926,1.16858 7.760079,2.37367 2.355412,1.18684 3.414435,2.95796 1.077281,1.77112 1.077281,3.96221 0,2.57452 -1.424202,4.74734 -1.424203,2.17282 -3.980464,3.30488 -2.556262,1.1138 -6.445431,1.1138 -6.828869,0 -9.458167,-2.6293 -2.629297,-2.6293 -2.976218,-6.6828 z"
         style="font-style:normal;font-variant:normal;font-weight:900;font-stretch:normal;font-size:37.39445114px;line-height:89.99999762%;font-family:Arial;-inkscape-font-specification:'Arial Heavy';text-align:center;text-anchor:middle;fill:#ffffff;stroke-width:0.26458332"
         id="path4106" />
      <path
         d="m 86.568775,247.70279 h 10.882369 l 4.199576,16.28703 4.18131,-16.28703 h 10.84585 v 26.7677 h -6.75583 v -20.41357 l -5.24034,20.41357 h -6.116766 l -5.222077,-20.41357 v 20.41357 h -6.774092 z"
         style="font-style:normal;font-variant:normal;font-weight:900;font-stretch:normal;font-size:37.39445114px;line-height:89.99999762%;font-family:Arial;-inkscape-font-specification:'Arial Heavy';text-align:center;text-anchor:middle;fill:#ffffff;stroke-width:0.26458332"
         id="path4108" />
      <path
         d="m 120.89571,261.1049 q 0,-6.55499 3.6518,-10.20679 3.65181,-3.6518 10.17027,-3.6518 6.6828,0 10.29808,3.59703 3.61529,3.57876 3.61529,10.04245 0,4.69257 -1.58854,7.7053 -1.57027,2.99448 -4.56475,4.67431 -2.97622,1.66157 -7.43142,1.66157 -4.52823,0 -7.50445,-1.44246 -2.95796,-1.44246 -4.80212,-4.56476 -1.84416,-3.12229 -1.84416,-7.81485 z m 8.27133,0.0365 q 0,4.0535 1.49724,5.82462 1.5155,1.77112 4.10828,1.77112 2.66581,0 4.12653,-1.7346 1.46073,-1.73461 1.46073,-6.22632 0,-3.77962 -1.53376,-5.51422 -1.5155,-1.75287 -4.12654,-1.75287 -2.50148,0 -4.01698,1.77112 -1.5155,1.77113 -1.5155,5.86115 z"
         style="font-style:normal;font-variant:normal;font-weight:900;font-stretch:normal;font-size:37.39445114px;line-height:89.99999762%;font-family:Arial;-inkscape-font-specification:'Arial Heavy';text-align:center;text-anchor:middle;fill:#ffffff;stroke-width:0.26458332"
         id="path4110" />
      <path
         d="m 153.17764,247.70279 h 7.72356 l 10.07897,14.80805 v -14.80805 h 7.7966 v 26.7677 h -7.7966 l -10.02419,-14.6985 v 14.6985 h -7.77834 z"
         style="font-style:normal;font-variant:normal;font-weight:900;font-stretch:normal;font-size:37.39445114px;line-height:89.99999762%;font-family:Arial;-inkscape-font-specification:'Arial Heavy';text-align:center;text-anchor:middle;fill:#ffffff;stroke-width:0.26458332"
         id="path4112" />
      <path
         d="m 184.4188,247.70279 h 12.28831 q 3.63355,0 5.86115,0.98598 2.24586,0.98599 3.70658,2.83015 1.46072,1.84416 2.11804,4.29087 0.65733,2.4467 0.65733,5.18555 0,4.29087 -0.98599,6.66454 -0.96773,2.35542 -2.70233,3.96221 -1.73461,1.58853 -3.72484,2.11804 -2.7206,0.73036 -4.92994,0.73036 H 184.4188 Z m 8.27133,6.06199 v 14.62546 h 2.02675 q 2.59278,0 3.68832,-0.56603 1.09554,-0.58428 1.71635,-2.00849 0.62081,-1.44246 0.62081,-4.65604 0,-4.25435 -1.38769,-5.82463 -1.38768,-1.57027 -4.60127,-1.57027 z"
         style="font-style:normal;font-variant:normal;font-weight:900;font-stretch:normal;font-size:37.39445114px;line-height:89.99999762%;font-family:Arial;-inkscape-font-specification:'Arial Heavy';text-align:center;text-anchor:middle;fill:#ffffff;stroke-width:0.26458332"
         id="path4114" />
      <path
         d="m 3.4854737,288.31124 2.8211887,-0.17673 q 0.09164,0.68729 0.3731039,1.04731 0.4581977,0.58256 1.3091363,0.58256 0.6349311,0 0.9753065,-0.29455 0.3469211,-0.30111 0.3469211,-0.69385 0,-0.3731 -0.327284,-0.66766 -0.3272841,-0.29455 -1.5185981,-0.55638 -1.9506131,-0.43856 -2.7819147,-1.16513 -0.8378472,-0.72657 -0.8378472,-1.85243 0,-0.73966 0.4254693,-1.39423 0.432015,-0.66111 1.2894992,-1.03422 0.86403,-0.37964 2.3629911,-0.37964 1.8393365,0 2.8015512,0.68729 0.968761,0.68075 1.15204,2.17317 l -2.7950056,0.16364 q -0.1112766,-0.64802 -0.4712891,-0.94258 -0.3534668,-0.29455 -0.9818522,-0.29455 -0.5171088,0 -0.7789361,0.22255 -0.2618273,0.21601 -0.2618273,0.5302 0,0.2291 0.2160075,0.41238 0.2094618,0.18982 0.9949436,0.35346 1.9440674,0.41893 2.7819142,0.85094 0.844393,0.42547 1.224043,1.0604 0.386195,0.63493 0.386195,1.42042 0,0.92294 -0.510563,1.70187 -0.510563,0.77894 -1.426959,1.18477 -0.916395,0.39929 -2.3106252,0.39929 -2.4480849,0 -3.390663,-0.94258 -0.9425782,-0.94258 -1.0669461,-2.39572 z"
         style="font-style:normal;font-variant:normal;font-weight:900;font-stretch:normal;font-size:13.40555573px;line-height:100%;font-family:Arial;-inkscape-font-specification:'Arial Heavy';text-align:center;text-anchor:middle;fill:#ffffff;stroke-width:0.26458332"
         id="path4116" />
      <path
         d="m 13.317087,286.69446 q 0,-2.3499 1.309137,-3.65904 1.309136,-1.30913 3.645944,-1.30913 2.39572,0 3.691765,1.28949 1.296045,1.28296 1.296045,3.60013 0,1.68224 -0.569475,2.76228 -0.562928,1.07349 -1.63642,1.67569 -1.066946,0.59566 -2.664092,0.59566 -1.623329,0 -2.690276,-0.51711 -1.0604,-0.51711 -1.721514,-1.63642 -0.661114,-1.11931 -0.661114,-2.80155 z m 2.965194,0.0131 q 0,1.45314 0.536746,2.08807 0.543292,0.63493 1.472778,0.63493 0.95567,0 1.479324,-0.62184 0.523655,-0.62184 0.523655,-2.23207 0,-1.35496 -0.549837,-1.9768 -0.543292,-0.62839 -1.479324,-0.62839 -0.896759,0 -1.44005,0.63493 -0.543292,0.63494 -0.543292,2.10117 z"
         style="font-style:normal;font-variant:normal;font-weight:900;font-stretch:normal;font-size:13.40555573px;line-height:100%;font-family:Arial;-inkscape-font-specification:'Arial Heavy';text-align:center;text-anchor:middle;fill:#ffffff;stroke-width:0.26458332"
         id="path4118" />
      <path
         d="m 24.883308,281.88993 h 7.331163 v 2.06189 h -4.352878 v 1.67569 h 3.717947 v 1.93752 h -3.717947 v 3.92087 h -2.978285 z"
         style="font-style:normal;font-variant:normal;font-weight:900;font-stretch:normal;font-size:13.40555573px;line-height:100%;font-family:Arial;-inkscape-font-specification:'Arial Heavy';text-align:center;text-anchor:middle;fill:#ffffff;stroke-width:0.26458332"
         id="path4120" />
      <path
         d="m 33.150502,281.88993 h 9.013403 v 2.36953 H 39.1398 v 7.22644 h -2.965193 v -7.22644 h -3.024105 z"
         style="font-style:normal;font-variant:normal;font-weight:900;font-stretch:normal;font-size:13.40555573px;line-height:100%;font-family:Arial;-inkscape-font-specification:'Arial Heavy';text-align:center;text-anchor:middle;fill:#ffffff;stroke-width:0.26458332"
         id="path4122" />
      <path
         d="m 42.52392,281.88993 h 2.814643 l 1.01458,5.36091 1.479324,-5.36091 h 2.808098 l 1.48587,5.36091 1.01458,-5.36091 h 2.801552 l -2.114255,9.59597 h -2.906283 l -1.68224,-6.04167 -1.675695,6.04167 h -2.906282 z"
         style="font-style:normal;font-variant:normal;font-weight:900;font-stretch:normal;font-size:13.40555573px;line-height:100%;font-family:Arial;-inkscape-font-specification:'Arial Heavy';text-align:center;text-anchor:middle;fill:#ffffff;stroke-width:0.26458332"
         id="path4124" />
      <path
         d="m 62.822078,289.90184 h -3.377572 l -0.464743,1.58406 h -3.03065 l 3.60667,-9.59597 h 3.233567 l 3.60667,9.59597 h -3.102653 z m -0.62184,-2.07498 -1.0604,-3.44957 -1.053855,3.44957 z"
         style="font-style:normal;font-variant:normal;font-weight:900;font-stretch:normal;font-size:13.40555573px;line-height:100%;font-family:Arial;-inkscape-font-specification:'Arial Heavy';text-align:center;text-anchor:middle;fill:#ffffff;stroke-width:0.26458332"
         id="path4126" />
      <path
         d="m 67.37787,291.4859 v -9.59597 h 4.94199 q 1.374593,0 2.101164,0.23564 0.72657,0.23565 1.171677,0.87712 0.445106,0.63493 0.445106,1.55133 0,0.79857 -0.340375,1.38114 -0.340376,0.57602 -0.936033,0.93603 -0.379649,0.2291 -1.040763,0.37965 0.5302,0.17673 0.77239,0.35347 0.163642,0.11782 0.471289,0.50401 0.314193,0.3862 0.418924,0.59566 l 1.433504,2.78192 h -3.351389 l -1.584055,-2.93247 q -0.301101,-0.56947 -0.536746,-0.73966 -0.320738,-0.22255 -0.72657,-0.22255 h -0.261827 v 3.89468 z m 2.978286,-5.70784 h 1.250225 q 0.202916,0 0.785481,-0.13091 0.294556,-0.0589 0.477835,-0.3011 0.189825,-0.24219 0.189825,-0.55639 0,-0.46474 -0.294556,-0.71348 -0.294555,-0.24873 -1.10622,-0.24873 h -1.30259 z"
         style="font-style:normal;font-variant:normal;font-weight:900;font-stretch:normal;font-size:13.40555573px;line-height:100%;font-family:Arial;-inkscape-font-specification:'Arial Heavy';text-align:center;text-anchor:middle;fill:#ffffff;stroke-width:0.26458332"
         id="path4128" />
      <path
         d="m 77.752774,281.88993 h 7.946457 v 2.0488 h -4.974718 v 1.52514 h 4.614705 v 1.95716 h -4.614705 v 1.8917 h 5.118723 v 2.17317 h -8.090462 z"
         style="font-style:normal;font-variant:normal;font-weight:900;font-stretch:normal;font-size:13.40555573px;line-height:100%;font-family:Arial;-inkscape-font-specification:'Arial Heavy';text-align:center;text-anchor:middle;fill:#ffffff;stroke-width:0.26458332"
         id="path4130" />
      <path
         d="m 96.440698,281.88993 h 4.405242 q 1.30259,0 2.10117,0.35346 0.80511,0.35347 1.32877,1.01458 0.52365,0.66112 0.7593,1.53824 0.23564,0.87712 0.23564,1.85897 0,1.53824 -0.35346,2.38918 -0.34693,0.84439 -0.96876,1.42041 -0.62184,0.56947 -1.33532,0.7593 -0.97531,0.26183 -1.76734,0.26183 h -4.405242 z m 2.965194,2.17316 v 5.24309 h 0.726568 q 0.92949,0 1.32223,-0.20291 0.39274,-0.20946 0.61529,-0.72003 0.22256,-0.51711 0.22256,-1.66915 0,-1.52514 -0.49747,-2.08807 -0.49748,-0.56293 -1.64952,-0.56293 z"
         style="font-style:normal;font-variant:normal;font-weight:900;font-stretch:normal;font-size:13.40555573px;line-height:100%;font-family:Arial;-inkscape-font-specification:'Arial Heavy';text-align:center;text-anchor:middle;fill:#ffffff;stroke-width:0.26458332"
         id="path4132" />
      <path
         d="m 106.8156,281.88993 h 7.94646 v 2.0488 h -4.97472 v 1.52514 h 4.61471 v 1.95716 h -4.61471 v 1.8917 h 5.11872 v 2.17317 h -8.09046 z"
         style="font-style:normal;font-variant:normal;font-weight:900;font-stretch:normal;font-size:13.40555573px;line-height:100%;font-family:Arial;-inkscape-font-specification:'Arial Heavy';text-align:center;text-anchor:middle;fill:#ffffff;stroke-width:0.26458332"
         id="path4134" />
      <path
         d="m 115.56063,281.88993 h 3.10265 l 2.16008,6.90569 2.12734,-6.90569 h 3.01102 l -3.56085,9.59597 h -3.21393 z"
         style="font-style:normal;font-variant:normal;font-weight:900;font-stretch:normal;font-size:13.40555573px;line-height:100%;font-family:Arial;-inkscape-font-specification:'Arial Heavy';text-align:center;text-anchor:middle;fill:#ffffff;stroke-width:0.26458332"
         id="path4136" />
      <path
         d="m 126.92394,281.88993 h 7.94646 v 2.0488 h -4.97472 v 1.52514 h 4.6147 v 1.95716 h -4.6147 v 1.8917 h 5.11872 v 2.17317 h -8.09046 z"
         style="font-style:normal;font-variant:normal;font-weight:900;font-stretch:normal;font-size:13.40555573px;line-height:100%;font-family:Arial;-inkscape-font-specification:'Arial Heavy';text-align:center;text-anchor:middle;fill:#ffffff;stroke-width:0.26458332"
         id="path4138" />
      <path
         d="m 136.61809,281.88993 h 2.9652 v 7.23298 h 4.62779 v 2.36299 h -7.59299 z"
         style="font-style:normal;font-variant:normal;font-weight:900;font-stretch:normal;font-size:13.40555573px;line-height:100%;font-family:Arial;-inkscape-font-specification:'Arial Heavy';text-align:center;text-anchor:middle;fill:#ffffff;stroke-width:0.26458332"
         id="path4140" />
      <path
         d="m 144.96383,286.69446 q 0,-2.3499 1.30914,-3.65904 1.30913,-1.30913 3.64594,-1.30913 2.39572,0 3.69176,1.28949 1.29605,1.28296 1.29605,3.60013 0,1.68224 -0.56947,2.76228 -0.56293,1.07349 -1.63643,1.67569 -1.06694,0.59566 -2.66409,0.59566 -1.62333,0 -2.69027,-0.51711 -1.0604,-0.51711 -1.72152,-1.63642 -0.66111,-1.11931 -0.66111,-2.80155 z m 2.96519,0.0131 q 0,1.45314 0.53675,2.08807 0.54329,0.63493 1.47278,0.63493 0.95567,0 1.47932,-0.62184 0.52366,-0.62184 0.52366,-2.23207 0,-1.35496 -0.54984,-1.9768 -0.54329,-0.62839 -1.47933,-0.62839 -0.89675,0 -1.44005,0.63493 -0.54329,0.63494 -0.54329,2.10117 z"
         style="font-style:normal;font-variant:normal;font-weight:900;font-stretch:normal;font-size:13.40555573px;line-height:100%;font-family:Arial;-inkscape-font-specification:'Arial Heavy';text-align:center;text-anchor:middle;fill:#ffffff;stroke-width:0.26458332"
         id="path4142" />
      <path
         d="m 156.50386,281.88993 h 4.9289 q 1.61024,0 2.40881,0.76584 0.80512,0.76585 0.80512,2.17971 0,1.45315 -0.87712,2.27136 -0.87057,0.81821 -2.66409,0.81821 h -1.62333 v 3.56085 h -2.97829 z m 2.97829,4.09105 h 0.72657 q 0.85748,0 1.20441,-0.29456 0.34692,-0.3011 0.34692,-0.76584 0,-0.45165 -0.3011,-0.76585 -0.30111,-0.31419 -1.13241,-0.31419 h -0.84439 z"
         style="font-style:normal;font-variant:normal;font-weight:900;font-stretch:normal;font-size:13.40555573px;line-height:100%;font-family:Arial;-inkscape-font-specification:'Arial Heavy';text-align:center;text-anchor:middle;fill:#ffffff;stroke-width:0.26458332"
         id="path4144" />
      <path
         d="m 166.17185,281.88993 h 3.90123 l 1.5055,5.83874 1.49896,-5.83874 h 3.88814 v 9.59597 h -2.4219 v -7.31808 l -1.87861,7.31808 h -2.19281 l -1.87206,-7.31808 v 7.31808 h -2.42845 z"
         style="font-style:normal;font-variant:normal;font-weight:900;font-stretch:normal;font-size:13.40555573px;line-height:100%;font-family:Arial;-inkscape-font-specification:'Arial Heavy';text-align:center;text-anchor:middle;fill:#ffffff;stroke-width:0.26458332"
         id="path4146" />
      <path
         d="m 178.84429,281.88993 h 7.94646 v 2.0488 h -4.97472 v 1.52514 h 4.6147 v 1.95716 h -4.6147 v 1.8917 h 5.11872 v 2.17317 h -8.09046 z"
         style="font-style:normal;font-variant:normal;font-weight:900;font-stretch:normal;font-size:13.40555573px;line-height:100%;font-family:Arial;-inkscape-font-specification:'Arial Heavy';text-align:center;text-anchor:middle;fill:#ffffff;stroke-width:0.26458332"
         id="path4148" />
      <path
         d="m 188.55808,281.88993 h 2.76882 l 3.61322,5.30854 v -5.30854 h 2.795 v 9.59597 h -2.795 l -3.59358,-5.26928 v 5.26928 h -2.78846 z"
         style="font-style:normal;font-variant:normal;font-weight:900;font-stretch:normal;font-size:13.40555573px;line-height:100%;font-family:Arial;-inkscape-font-specification:'Arial Heavy';text-align:center;text-anchor:middle;fill:#ffffff;stroke-width:0.26458332"
         id="path4150" />
      <path
         d="m 199.04426,281.88993 h 9.0134 v 2.36953 h -3.0241 v 7.22644 h -2.9652 v -7.22644 h -3.0241 z"
         style="font-style:normal;font-variant:normal;font-weight:900;font-stretch:normal;font-size:13.40555573px;line-height:100%;font-family:Arial;-inkscape-font-specification:'Arial Heavy';text-align:center;text-anchor:middle;fill:#ffffff;stroke-width:0.26458332"
         id="path4152" />
    </g>
    <flowRoot
       xml:space="preserve"
       id="flowRoot20"
       style="font-style:normal;font-weight:normal;font-size:40px;line-height:25px;font-family:sans-serif;letter-spacing:0px;word-spacing:0px;fill:#000000;fill-opacity:1;stroke:none"
       transform="matrix(0.26458333,0,0,0.26458333,0,191.16663)"><flowRegion
         id="flowRegion22"><rect
           id="rect24"
           width="27.857143"
           height="43.57143"
           x="15"
           y="24.285713" /></flowRegion><flowPara
         id="flowPara26"></flowPara></flowRoot>  </g>
</svg>
