<?xml version="1.0" encoding="UTF-8" standalone="no"?>
<!-- Created with Inkscape (http://www.inkscape.org/) -->

<svg
   xmlns:dc="http://purl.org/dc/elements/1.1/"
   xmlns:cc="http://creativecommons.org/ns#"
   xmlns:rdf="http://www.w3.org/1999/02/22-rdf-syntax-ns#"
   xmlns:svg="http://www.w3.org/2000/svg"
   xmlns="http://www.w3.org/2000/svg"
   xmlns:sodipodi="http://sodipodi.sourceforge.net/DTD/sodipodi-0.dtd"
   xmlns:inkscape="http://www.inkscape.org/namespaces/inkscape"
   width="800"
   height="120"
   viewBox="0 0 211.66668 31.75"
   version="1.1"
   id="svg34"
   sodipodi:docname="title.svg"
   inkscape:version="0.92.0 r15299">
  <defs
     id="defs28" />
  <sodipodi:namedview
     id="base"
     pagecolor="#ffffff"
     bordercolor="#666666"
     borderopacity="1.0"
     inkscape:pageopacity="0.0"
     inkscape:pageshadow="2"
     inkscape:zoom="1.979899"
     inkscape:cx="418.99343"
     inkscape:cy="37.110155"
     inkscape:document-units="mm"
     inkscape:current-layer="layer1"
     showgrid="false"
     units="px"
     inkscape:pagecheckerboard="true"
     showborder="true"
     inkscape:window-width="1920"
     inkscape:window-height="1147"
     inkscape:window-x="-8"
     inkscape:window-y="-8"
     inkscape:window-maximized="1" />
  <metadata
     id="metadata31">
    <rdf:RDF>
      <cc:Work
         rdf:about="">
        <dc:format>image/svg+xml</dc:format>
        <dc:type
           rdf:resource="http://purl.org/dc/dcmitype/StillImage" />
        <dc:title></dc:title>
      </cc:Work>
    </rdf:RDF>
  </metadata>
  <g
     inkscape:label="Layer 1"
     inkscape:groupmode="layer"
     id="layer1"
     transform="translate(0,-265.24999)">
    <g
       aria-label="STEVE DESMOND
SOFTWARE  DEVELOPMENT"
       style="font-style:normal;font-weight:normal;font-size:10.58333302px;line-height:6.61458302px;font-family:sans-serif;letter-spacing:0px;word-spacing:0px;fill:#000000;fill-opacity:1;stroke:none;stroke-width:0.26458332"
       id="text38">
      <path
         d="m 0.44880696,276.72103 4.64011574,-0.29068 q 0.150723,1.13042 0.613658,1.72255 0.753615,0.95817 2.1531859,0.95817 1.0442952,0 1.6041235,-0.48447 0.5705939,-0.49523 0.5705939,-1.14119 0,-0.61366 -0.5382961,-1.09812 -0.5382965,-0.48447 -2.4976957,-0.91511 -3.208247,-0.72132 -4.5755201,-1.91633 -1.378039,-1.19502 -1.378039,-3.04676 0,-1.21655 0.6997854,-2.29315 0.7105514,-1.08735 2.1208882,-1.70101 1.4211027,-0.62443 3.8865006,-0.62443 3.0252267,0 4.6078177,1.13043 1.593358,1.11965 1.894804,3.57428 l -4.5970521,0.26915 q -0.1830209,-1.06582 -0.775147,-1.55029 -0.5813602,-0.48447 -1.6148894,-0.48447 -0.8505085,0 -1.2811457,0.36604 -0.4306372,0.35528 -0.4306372,0.87204 0,0.37681 0.3552757,0.67826 0.3445098,0.31221 1.6364213,0.58136 3.1974814,0.68902 4.5755204,1.39957 1.388805,0.69978 2.013229,1.74408 0.635189,1.04429 0.635189,2.33621 0,1.51799 -0.839742,2.79914 -0.839743,1.28114 -2.346973,1.94863 -1.50723,0.65672 -3.8003729,0.65672 -4.0264577,0 -5.5767516,-1.55029 -1.55029388,-1.55029 -1.75484654,-3.94033 z"
         style="font-style:normal;font-variant:normal;font-weight:900;font-stretch:normal;font-size:22.04862404px;line-height:89.99999762%;font-family:Arial;-inkscape-font-specification:'Arial Heavy';text-align:center;text-anchor:middle;fill:#ffffff;stroke-width:0.26458332"
         id="path4029" />
      <path
         d="m 16.124,266.15965 h 14.824685 v 3.89727 H 25.974826 V 281.9425 H 21.09786 V 270.05692 H 16.124 Z"
         style="font-style:normal;font-variant:normal;font-weight:900;font-stretch:normal;font-size:22.04862404px;line-height:89.99999762%;font-family:Arial;-inkscape-font-specification:'Arial Heavy';text-align:center;text-anchor:middle;fill:#ffffff;stroke-width:0.26458332"
         id="path4031" />
      <path
         d="m 33.155701,266.15965 h 13.069838 v 3.36974 h -8.182106 v 2.50846 h 7.58998 v 3.21901 h -7.58998 v 3.11136 h 8.418957 v 3.57428 H 33.155701 Z"
         style="font-style:normal;font-variant:normal;font-weight:900;font-stretch:normal;font-size:22.04862404px;line-height:89.99999762%;font-family:Arial;-inkscape-font-specification:'Arial Heavy';text-align:center;text-anchor:middle;fill:#ffffff;stroke-width:0.26458332"
         id="path4033" />
      <path
         d="m 47.538983,266.15965 h 5.103051 l 3.552757,11.35806 3.498927,-11.35806 h 4.952328 L 58.78938,281.9425 h -5.286072 z"
         style="font-style:normal;font-variant:normal;font-weight:900;font-stretch:normal;font-size:22.04862404px;line-height:89.99999762%;font-family:Arial;-inkscape-font-specification:'Arial Heavy';text-align:center;text-anchor:middle;fill:#ffffff;stroke-width:0.26458332"
         id="path4035" />
      <path
         d="m 66.228636,266.15965 h 13.069839 v 3.36974 h -8.182107 v 2.50846 h 7.58998 v 3.21901 h -7.58998 v 3.11136 h 8.418957 v 3.57428 H 66.228636 Z"
         style="font-style:normal;font-variant:normal;font-weight:900;font-stretch:normal;font-size:22.04862404px;line-height:89.99999762%;font-family:Arial;-inkscape-font-specification:'Arial Heavy';text-align:center;text-anchor:middle;fill:#ffffff;stroke-width:0.26458332"
         id="path4037" />
      <path
         d="m 89.601467,266.15965 h 7.245471 q 2.14242,0 3.455862,0.58136 1.32421,0.58136 2.18549,1.66872 0.86127,1.08736 1.24884,2.52999 0.38758,1.44264 0.38758,3.05753 0,2.52999 -0.58136,3.92956 -0.5706,1.38881 -1.59336,2.33621 -1.02276,0.93664 -2.196251,1.24885 -1.604123,0.43063 -2.906801,0.43063 h -7.245471 z m 4.876967,3.57429 v 8.62351 h 1.195018 q 1.528762,0 2.174718,-0.33374 0.645955,-0.34451 1.011997,-1.18426 0.366042,-0.8505 0.366042,-2.74531 0,-2.50846 -0.818211,-3.43433 -0.818211,-0.92587 -2.713014,-0.92587 z"
         style="font-style:normal;font-variant:normal;font-weight:900;font-stretch:normal;font-size:22.04862404px;line-height:89.99999762%;font-family:Arial;-inkscape-font-specification:'Arial Heavy';text-align:center;text-anchor:middle;fill:#ffffff;stroke-width:0.26458332"
         id="path4039" />
      <path
         d="m 106.66547,266.15965 h 13.06984 v 3.36974 h -8.18211 v 2.50846 h 7.58998 v 3.21901 h -7.58998 v 3.11136 h 8.41896 v 3.57428 h -13.30669 z"
         style="font-style:normal;font-variant:normal;font-weight:900;font-stretch:normal;font-size:22.04862404px;line-height:89.99999762%;font-family:Arial;-inkscape-font-specification:'Arial Heavy';text-align:center;text-anchor:middle;fill:#ffffff;stroke-width:0.26458332"
         id="path4041" />
      <path
         d="m 121.7593,276.72103 4.64012,-0.29068 q 0.15072,1.13042 0.61365,1.72255 0.75362,0.95817 2.15319,0.95817 1.0443,0 1.60412,-0.48447 0.5706,-0.49523 0.5706,-1.14119 0,-0.61366 -0.5383,-1.09812 -0.5383,-0.48447 -2.49769,-0.91511 -3.20825,-0.72132 -4.57552,-1.91633 -1.37804,-1.19502 -1.37804,-3.04676 0,-1.21655 0.69978,-2.29315 0.71055,-1.08735 2.12089,-1.70101 1.4211,-0.62443 3.8865,-0.62443 3.02523,0 4.60782,1.13043 1.59336,1.11965 1.8948,3.57428 l -4.59705,0.26915 q -0.18302,-1.06582 -0.77515,-1.55029 -0.58136,-0.48447 -1.61489,-0.48447 -0.8505,0 -1.28114,0.36604 -0.43064,0.35528 -0.43064,0.87204 0,0.37681 0.35528,0.67826 0.34451,0.31221 1.63642,0.58136 3.19748,0.68902 4.57552,1.39957 1.3888,0.69978 2.01323,1.74408 0.63519,1.04429 0.63519,2.33621 0,1.51799 -0.83975,2.79914 -0.83974,1.28114 -2.34697,1.94863 -1.50723,0.65672 -3.80037,0.65672 -4.02646,0 -5.57675,-1.55029 -1.5503,-1.55029 -1.75485,-3.94033 z"
         style="font-style:normal;font-variant:normal;font-weight:900;font-stretch:normal;font-size:22.04862404px;line-height:89.99999762%;font-family:Arial;-inkscape-font-specification:'Arial Heavy';text-align:center;text-anchor:middle;fill:#ffffff;stroke-width:0.26458332"
         id="path4043" />
      <path
         d="m 138.48955,266.15965 h 6.41649 l 2.47617,9.60321 2.4654,-9.60321 h 6.39496 v 15.78285 h -3.9834 v -12.0363 l -3.08982,12.0363 h -3.60658 l -3.07906,-12.0363 v 12.0363 h -3.99416 z"
         style="font-style:normal;font-variant:normal;font-weight:900;font-stretch:normal;font-size:22.04862404px;line-height:89.99999762%;font-family:Arial;-inkscape-font-specification:'Arial Heavy';text-align:center;text-anchor:middle;fill:#ffffff;stroke-width:0.26458332"
         id="path4045" />
      <path
         d="m 158.72951,274.06184 q 0,-3.86496 2.15319,-6.01815 2.15318,-2.15319 5.99662,-2.15319 3.94033,0 6.07198,2.12089 2.13166,2.11012 2.13166,5.92126 0,2.76685 -0.93664,4.54323 -0.92587,1.76561 -2.69148,2.75607 -1.75485,0.9797 -4.38173,0.9797 -2.66995,0 -4.4248,-0.85051 -1.74408,-0.8505 -2.83144,-2.69148 -1.08736,-1.84097 -1.08736,-4.60782 z m 4.87697,0.0215 q 0,2.39003 0.8828,3.43433 0.89358,1.04429 2.42234,1.04429 1.57182,0 2.4331,-1.02276 0.86127,-1.02276 0.86127,-3.67118 0,-2.22855 -0.90434,-3.25131 -0.89357,-1.03353 -2.4331,-1.03353 -1.47493,0 -2.3685,1.04429 -0.89357,1.0443 -0.89357,3.45587 z"
         style="font-style:normal;font-variant:normal;font-weight:900;font-stretch:normal;font-size:22.04862404px;line-height:89.99999762%;font-family:Arial;-inkscape-font-specification:'Arial Heavy';text-align:center;text-anchor:middle;fill:#ffffff;stroke-width:0.26458332"
         id="path4047" />
      <path
         d="m 177.76367,266.15965 h 4.55398 l 5.9428,8.73117 v -8.73117 h 4.59705 v 15.78285 h -4.59705 l -5.9105,-8.66657 v 8.66657 h -4.58628 z"
         style="font-style:normal;font-variant:normal;font-weight:900;font-stretch:normal;font-size:22.04862404px;line-height:89.99999762%;font-family:Arial;-inkscape-font-specification:'Arial Heavy';text-align:center;text-anchor:middle;fill:#ffffff;stroke-width:0.26458332"
         id="path4049" />
      <path
         d="m 196.18418,266.15965 h 7.24547 q 2.14242,0 3.45586,0.58136 1.32421,0.58136 2.18549,1.66872 0.86127,1.08736 1.24884,2.52999 0.38758,1.44264 0.38758,3.05753 0,2.52999 -0.58136,3.92956 -0.5706,1.38881 -1.59336,2.33621 -1.02276,0.93664 -2.19625,1.24885 -1.60412,0.43063 -2.9068,0.43063 h -7.24547 z m 4.87696,3.57429 v 8.62351 h 1.19502 q 1.52876,0 2.17472,-0.33374 0.64596,-0.34451 1.012,-1.18426 0.36604,-0.8505 0.36604,-2.74531 0,-2.50846 -0.81821,-3.43433 -0.81821,-0.92587 -2.71302,-0.92587 z"
         style="font-style:normal;font-variant:normal;font-weight:900;font-stretch:normal;font-size:22.04862404px;line-height:89.99999762%;font-family:Arial;-inkscape-font-specification:'Arial Heavy';text-align:center;text-anchor:middle;fill:#ffffff;stroke-width:0.26458332"
         id="path4051" />
      <path
         d="m 0.73679347,292.54597 2.89543043,-0.18139 q 0.094051,0.70539 0.3829224,1.07487 0.4702555,0.5979 1.3435872,0.5979 0.6516398,0 1.0009725,-0.30231 0.3560506,-0.30902 0.3560506,-0.7121 0,-0.38292 -0.3358968,-0.68523 Q 6.043963,292.0354 4.8212986,291.76669 2.8193537,291.31659 1.9661758,290.57089 1.10628,289.8252 1.10628,288.66972 q 0,-0.75913 0.4366658,-1.43092 0.4433838,-0.67851 1.3234334,-1.06144 0.8867676,-0.38964 2.425175,-0.38964 1.88774,0 2.8752766,0.70539 0.9942546,0.69866 1.1823568,2.23035 l -2.8685587,0.16795 q -0.1142049,-0.66508 -0.4836914,-0.96738 -0.3627686,-0.30231 -1.0076905,-0.30231 -0.5307169,0 -0.7994344,0.22841 -0.2687174,0.22169 -0.2687174,0.54415 0,0.23513 0.2216919,0.42323 0.2149739,0.19482 1.0211263,0.36277 1.995227,0.42995 2.8551228,0.87333 0.8666138,0.43667 1.2562541,1.08831 0.3963582,0.65164 0.3963582,1.45779 0,0.94723 -0.523999,1.74666 -0.523999,0.79944 -1.4645101,1.21595 -0.940511,0.4098 -2.3714314,0.4098 -2.5125081,0 -3.4798909,-0.96739 -0.96738284,-0.96738 -1.09502363,-2.45876 z"
         style="font-style:normal;font-variant:normal;font-weight:900;font-stretch:normal;font-size:13.75833321px;line-height:89.99999762%;font-family:Arial;-inkscape-font-specification:'Arial Heavy';text-align:center;text-anchor:middle;fill:#ffffff;stroke-width:0.26458332"
         id="path4053" />
      <path
         d="m 10.827134,290.88664 q 0,-2.41174 1.343587,-3.75533 1.343587,-1.34359 3.741891,-1.34359 2.458764,0 3.788916,1.32344 1.330151,1.31671 1.330151,3.69486 0,1.72651 -0.58446,2.83497 -0.577743,1.10174 -1.679485,1.71979 -1.095023,0.61134 -2.7342,0.61134 -1.666048,0 -2.761071,-0.53072 -1.088306,-0.53072 -1.766817,-1.67949 -0.678512,-1.14876 -0.678512,-2.87527 z m 3.043225,0.0134 q 0,1.49139 0.550871,2.14303 0.557588,0.65163 1.511535,0.65163 0.980819,0 1.518254,-0.6382 0.537435,-0.6382 0.537435,-2.29082 0,-1.39061 -0.564307,-2.02881 -0.557588,-0.64492 -1.518253,-0.64492 -0.920358,0 -1.477946,0.65164 -0.557589,0.65164 -0.557589,2.15645 z"
         style="font-style:normal;font-variant:normal;font-weight:900;font-stretch:normal;font-size:13.75833321px;line-height:89.99999762%;font-family:Arial;-inkscape-font-specification:'Arial Heavy';text-align:center;text-anchor:middle;fill:#ffffff;stroke-width:0.26458332"
         id="path4055" />
      <path
         d="m 22.697727,285.95567 h 7.524088 v 2.11615 h -4.467427 v 1.71979 h 3.815787 v 1.98851 h -3.815787 v 4.02405 h -3.056661 z"
         style="font-style:normal;font-variant:normal;font-weight:900;font-stretch:normal;font-size:13.75833321px;line-height:89.99999762%;font-family:Arial;-inkscape-font-specification:'Arial Heavy';text-align:center;text-anchor:middle;fill:#ffffff;stroke-width:0.26458332"
         id="path4057" />
      <path
         d="m 31.182481,285.95567 h 9.250598 v 2.4319 h -3.103686 v 7.4166 h -3.043225 v -7.4166 h -3.103687 z"
         style="font-style:normal;font-variant:normal;font-weight:900;font-stretch:normal;font-size:13.75833321px;line-height:89.99999762%;font-family:Arial;-inkscape-font-specification:'Arial Heavy';text-align:center;text-anchor:middle;fill:#ffffff;stroke-width:0.26458332"
         id="path4059" />
      <path
         d="m 40.802563,285.95567 h 2.888713 l 1.04128,5.50199 1.518254,-5.50199 h 2.881994 l 1.524972,5.50199 1.04128,-5.50199 h 2.875277 l -2.169894,9.8485 h -2.982764 l -1.726509,-6.20066 -1.719792,6.20066 h -2.982763 z"
         style="font-style:normal;font-variant:normal;font-weight:900;font-stretch:normal;font-size:13.75833321px;line-height:89.99999762%;font-family:Arial;-inkscape-font-specification:'Arial Heavy';text-align:center;text-anchor:middle;fill:#ffffff;stroke-width:0.26458332"
         id="path4061" />
      <path
         d="M 61.634885,294.17843 H 58.16843 l -0.476973,1.62574 h -3.110405 l 3.701583,-9.8485 h 3.318661 l 3.701582,9.8485 h -3.184301 z m -0.638204,-2.12959 -1.088305,-3.54035 -1.081588,3.54035 z"
         style="font-style:normal;font-variant:normal;font-weight:900;font-stretch:normal;font-size:13.75833321px;line-height:89.99999762%;font-family:Arial;-inkscape-font-specification:'Arial Heavy';text-align:center;text-anchor:middle;fill:#ffffff;stroke-width:0.26458332"
         id="path4063" />
      <path
         d="m 66.310565,295.80417 v -9.8485 h 5.072041 q 1.410767,0 2.156458,0.24185 0.745691,0.24184 1.20251,0.9002 0.45682,0.65164 0.45682,1.59215 0,0.81959 -0.349333,1.41749 -0.349332,0.59118 -0.960664,0.96066 -0.389641,0.23513 -1.068152,0.38964 0.544153,0.18139 0.792716,0.36277 0.167949,0.12092 0.483692,0.51728 0.322461,0.39636 0.429948,0.61133 l 1.471228,2.85513 h -3.439584 l -1.62574,-3.00964 q -0.309025,-0.58446 -0.550871,-0.75913 -0.329179,-0.22841 -0.745691,-0.22841 h -0.268717 v 3.99718 z m 3.056661,-5.85804 h 1.283125 q 0.208256,0 0.806153,-0.13436 0.302307,-0.0605 0.490409,-0.30903 0.19482,-0.24856 0.19482,-0.57102 0,-0.47698 -0.302307,-0.73226 -0.302307,-0.25528 -1.135331,-0.25528 h -1.336869 z"
         style="font-style:normal;font-variant:normal;font-weight:900;font-stretch:normal;font-size:13.75833321px;line-height:89.99999762%;font-family:Arial;-inkscape-font-specification:'Arial Heavy';text-align:center;text-anchor:middle;fill:#ffffff;stroke-width:0.26458332"
         id="path4065" />
      <path
         d="m 76.958501,285.95567 h 8.155574 v 2.10272 h -5.105631 v 1.56528 h 4.736145 v 2.00866 h -4.736145 v 1.94148 h 5.253426 v 2.23036 h -8.303369 z"
         style="font-style:normal;font-variant:normal;font-weight:900;font-stretch:normal;font-size:13.75833321px;line-height:89.99999762%;font-family:Arial;-inkscape-font-specification:'Arial Heavy';text-align:center;text-anchor:middle;fill:#ffffff;stroke-width:0.26458332"
         id="path4067" />
      <path
         d="m 96.138201,285.95567 h 4.521169 q 1.33687,0 2.15646,0.36277 0.82631,0.36277 1.36374,1.04128 0.53744,0.67851 0.77928,1.57872 0.24185,0.9002 0.24185,1.90789 0,1.57871 -0.36277,2.45205 -0.35605,0.86661 -0.99426,1.45779 -0.6382,0.58446 -1.37045,0.77928 -1.00098,0.26872 -1.81385,0.26872 h -4.521169 z m 3.043225,2.23036 v 5.38106 h 0.745691 q 0.953943,0 1.357023,-0.20825 0.40308,-0.21498 0.63149,-0.73897 0.22841,-0.53072 0.22841,-1.71308 0,-1.56528 -0.51057,-2.14302 -0.51056,-0.57774 -1.692917,-0.57774 z"
         style="font-style:normal;font-variant:normal;font-weight:900;font-stretch:normal;font-size:13.75833321px;line-height:89.99999762%;font-family:Arial;-inkscape-font-specification:'Arial Heavy';text-align:center;text-anchor:middle;fill:#ffffff;stroke-width:0.26458332"
         id="path4069" />
      <path
         d="m 106.78614,285.95567 h 8.15557 v 2.10272 h -5.10563 v 1.56528 h 4.73615 v 2.00866 h -4.73615 v 1.94148 h 5.25343 v 2.23036 h -8.30337 z"
         style="font-style:normal;font-variant:normal;font-weight:900;font-stretch:normal;font-size:13.75833321px;line-height:89.99999762%;font-family:Arial;-inkscape-font-specification:'Arial Heavy';text-align:center;text-anchor:middle;fill:#ffffff;stroke-width:0.26458332"
         id="path4071" />
      <path
         d="m 115.7613,285.95567 h 3.1843 l 2.21692,7.08743 2.18333,-7.08743 h 3.09025 l -3.65456,9.8485 h -3.29851 z"
         style="font-style:normal;font-variant:normal;font-weight:900;font-stretch:normal;font-size:13.75833321px;line-height:89.99999762%;font-family:Arial;-inkscape-font-specification:'Arial Heavy';text-align:center;text-anchor:middle;fill:#ffffff;stroke-width:0.26458332"
         id="path4073" />
      <path
         d="m 127.42363,285.95567 h 8.15558 v 2.10272 h -5.10563 v 1.56528 h 4.73614 v 2.00866 h -4.73614 v 1.94148 h 5.25342 v 2.23036 h -8.30337 z"
         style="font-style:normal;font-variant:normal;font-weight:900;font-stretch:normal;font-size:13.75833321px;line-height:89.99999762%;font-family:Arial;-inkscape-font-specification:'Arial Heavy';text-align:center;text-anchor:middle;fill:#ffffff;stroke-width:0.26458332"
         id="path4075" />
      <path
         d="m 137.3729,285.95567 h 3.04323 v 7.42332 h 4.74958 v 2.42518 h -7.79281 z"
         style="font-style:normal;font-variant:normal;font-weight:900;font-stretch:normal;font-size:13.75833321px;line-height:89.99999762%;font-family:Arial;-inkscape-font-specification:'Arial Heavy';text-align:center;text-anchor:middle;fill:#ffffff;stroke-width:0.26458332"
         id="path4077" />
      <path
         d="m 145.93827,290.88664 q 0,-2.41174 1.34359,-3.75533 1.34358,-1.34359 3.74189,-1.34359 2.45876,0 3.78891,1.32344 1.33015,1.31671 1.33015,3.69486 0,1.72651 -0.58446,2.83497 -0.57774,1.10174 -1.67948,1.71979 -1.09502,0.61134 -2.7342,0.61134 -1.66605,0 -2.76107,-0.53072 -1.08831,-0.53072 -1.76682,-1.67949 -0.67851,-1.14876 -0.67851,-2.87527 z m 3.04322,0.0134 q 0,1.49139 0.55087,2.14303 0.55759,0.65163 1.51154,0.65163 0.98082,0 1.51825,-0.6382 0.53744,-0.6382 0.53744,-2.29082 0,-1.39061 -0.56431,-2.02881 -0.55759,-0.64492 -1.51825,-0.64492 -0.92036,0 -1.47795,0.65164 -0.55759,0.65164 -0.55759,2.15645 z"
         style="font-style:normal;font-variant:normal;font-weight:900;font-stretch:normal;font-size:13.75833321px;line-height:89.99999762%;font-family:Arial;-inkscape-font-specification:'Arial Heavy';text-align:center;text-anchor:middle;fill:#ffffff;stroke-width:0.26458332"
         id="path4079" />
      <path
         d="m 157.78198,285.95567 h 5.05861 q 1.65261,0 2.4722,0.786 0.82631,0.786 0.82631,2.23707 0,1.49139 -0.90021,2.33113 -0.89348,0.83974 -2.7342,0.83974 h -1.66605 v 3.65456 h -3.05666 z m 3.05666,4.19871 h 0.74569 q 0.88005,0 1.2361,-0.3023 0.35606,-0.30903 0.35606,-0.786 0,-0.46354 -0.30903,-0.786 -0.30902,-0.32246 -1.1622,-0.32246 h -0.86662 z"
         style="font-style:normal;font-variant:normal;font-weight:900;font-stretch:normal;font-size:13.75833321px;line-height:89.99999762%;font-family:Arial;-inkscape-font-specification:'Arial Heavy';text-align:center;text-anchor:middle;fill:#ffffff;stroke-width:0.26458332"
         id="path4081" />
      <path
         d="m 167.70438,285.95567 h 4.00389 l 1.54512,5.9924 1.53841,-5.9924 h 3.99046 v 9.8485 h -2.48564 v -7.51066 l -1.92805,7.51066 h -2.25051 l -1.92133,-7.51066 v 7.51066 h -2.49235 z"
         style="font-style:normal;font-variant:normal;font-weight:900;font-stretch:normal;font-size:13.75833321px;line-height:89.99999762%;font-family:Arial;-inkscape-font-specification:'Arial Heavy';text-align:center;text-anchor:middle;fill:#ffffff;stroke-width:0.26458332"
         id="path4083" />
      <path
         d="m 180.7103,285.95567 h 8.15558 v 2.10272 h -5.10564 v 1.56528 h 4.73615 v 2.00866 h -4.73615 v 1.94148 h 5.25343 v 2.23036 h -8.30337 z"
         style="font-style:normal;font-variant:normal;font-weight:900;font-stretch:normal;font-size:13.75833321px;line-height:89.99999762%;font-family:Arial;-inkscape-font-specification:'Arial Heavy';text-align:center;text-anchor:middle;fill:#ffffff;stroke-width:0.26458332"
         id="path4085" />
      <path
         d="m 190.67972,285.95567 h 2.84169 l 3.7083,5.44825 v -5.44825 h 2.86856 v 9.8485 h -2.86856 l -3.68815,-5.40794 v 5.40794 h -2.86184 z"
         style="font-style:normal;font-variant:normal;font-weight:900;font-stretch:normal;font-size:13.75833321px;line-height:89.99999762%;font-family:Arial;-inkscape-font-specification:'Arial Heavy';text-align:center;text-anchor:middle;fill:#ffffff;stroke-width:0.26458332"
         id="path4087" />
      <path
         d="m 201.44185,285.95567 h 9.2506 v 2.4319 h -3.10369 v 7.4166 h -3.04322 v -7.4166 h -3.10369 z"
         style="font-style:normal;font-variant:normal;font-weight:900;font-stretch:normal;font-size:13.75833321px;line-height:89.99999762%;font-family:Arial;-inkscape-font-specification:'Arial Heavy';text-align:center;text-anchor:middle;fill:#ffffff;stroke-width:0.26458332"
         id="path4089" />
    </g>
  </g>
</svg>
